<svg xmlns="http://www.w3.org/2000/svg" width="64" height="45.672" viewBox="0 11.162 64 45.672"><path d="M49.486 15.034c-6.859 0.033-12.073 4.57-14.025 11.8 -3.275-5.04-5.83-10.805-7.295-15.672l-7.22 0.034 0.1 19.138c0.018 3.789-3.039 6.875-6.829 6.894 -3.789 0.019-6.875-3.039-6.893-6.829l0 0 -0.1-19.138L0 11.296l0.1 19.139C0.128 38.377 6.474 44.67 14.24 44.63c7.766-0.04 14.055-6.386 14.02-14.33l-0.015-3.25c1.456 2.88 3.276 5.94 5.276 8.64l-4.416 21.145 7.4-0.034 3.18-15.362c2.896 1.793 6.15 2.86 9.94 2.843C57.57 44.245 64.04 37.717 64 29.41c-0.036-7.946-6.568-14.413-14.512-14.377L49.486 15.034zM49.59 36.88c-2.888 0.013-5.781-1.235-8.138-3.213l0.708-2.9v-0.182c0.527-3.074 2.126-8.316 7.542-8.34 3.983-0.007 7.226 3.204 7.257 7.188 -0.163 4.153-3.577 7.42-7.37 7.437L49.59 36.88z" fill="#6FDA44"/></svg>